{
  "asset": {
    "version": "2.0",
    "generator": "THREE.GLTFExporter"
  },
  "scenes": [
    {
      "nodes": [
        0
      ]
    }
  ],
  "scene": 0,
  "nodes": [
    {
      "children": [
        11
      ],
      "matrix": [
        0.01,
        0,
        0,
        0,
        0,
        0.01,
        0,
        0,
        0,
        0,
        0.01,
        0,
        0,
        0,
        0,
        1
      ]
    },
    {
      "matrix": [
        2.220446049250313e-16,
        -2.220446049250313e-16,
        1,
        0,
        1,
        0,
        -2.220446049250313e-16,
        0,
        0,
        1,
        2.220446049250313e-16,
        0,
        25.80000000000001,
        -65.94250507920223,
        -10.099999999999998,
        1
      ],
      "name": "Rectangle",
      "mesh": 0
    },
    {
      "matrix": [
        0.00611516115586562,
        0.05222118205892593,
        -0.9986168198805818,
        0,
        0.9932133766949419,
        -0.11630644158528566,
        0,
        0,
        -0.11614556882752462,
        -0.9918395836979573,
        -0.05257800920150643,
        0,
        0,
        0,
        0,
        1
      ],
      "name": "Directional Light",
      "extensions": {
        "KHR_lights_punctual": {
          "light": 0
        }
      }
    },
    {
      "matrix": [
        1,
        0,
        0,
        0,
        0,
        1,
        0,
        0,
        0,
        0,
        1,
        0,
        7.5781557774163275,
        75.01638249180724,
        -23.273346897913328,
        1
      ],
      "name": "Group 2"
    },
    {
      "matrix": [
        -0.1587141515242759,
        0.2324996331724559,
        1.0692794889460122,
        0,
        0.06923691879462868,
        0.9769066737673175,
        -0.2021375764787476,
        0,
        -0.9872196062927118,
        0.037940641566251966,
        -0.1547835801007453,
        0,
        66.50451808615695,
        -23.33508736647388,
        7.559195932899108,
        1.0000000000000004
      ],
      "name": "Sphere 2",
      "mesh": 1
    },
    {
      "matrix": [
        0.07237072981269743,
        0.23422678559613047,
        1.078195333497472,
        0,
        -0.0785491977850456,
        0.9752685216003601,
        -0.20659461344084895,
        0,
        -0.9947593272054398,
        -0.06307230854165603,
        0.08047213699788158,
        0,
        -66.66379703105895,
        -23.694006980783534,
        13.366560935685843,
        1.0000000000000004
      ],
      "name": "Sphere",
      "mesh": 2
    },
    {
      "matrix": [
        1.5419339575708395,
        0,
        0,
        0,
        0,
        1.338757566092609,
        0,
        0,
        0,
        0,
        1.3748238683106109,
        0,
        0,
        1.4210854715202004e-14,
        3.552713678800501e-15,
        1
      ],
      "name": "Lathe",
      "mesh": 3
    },
    {
      "name": "Group",
      "children": [
        6
      ]
    },
    {
      "matrix": [
        1,
        0,
        0,
        0,
        0,
        1,
        0,
        0,
        0,
        0,
        1,
        0,
        7.5781557774163275,
        82.01638249180726,
        -24.273346897913328,
        1
      ],
      "name": "Group 3",
      "children": [
        4,
        5,
        7
      ]
    },
    {
      "matrix": [
        0.9604424530040611,
        -1.4235328707479233e-8,
        -0.2784785350211785,
        0,
        -0.08231379782737205,
        0.9553167403190812,
        -0.28389146579874464,
        0,
        0.26603521036655364,
        0.29558404162966084,
        0.917526752296138,
        0,
        266.0352103665551,
        295.58404162965587,
        917.5267522961215,
        1
      ],
      "camera": 0
    },
    {
      "matrix": [
        1,
        0,
        0,
        0,
        0,
        1,
        0,
        0,
        0,
        0,
        1,
        0,
        0,
        1,
        0,
        1
      ],
      "name": "Default Ambient Light"
    },
    {
      "name": "Scene 1",
      "children": [
        1,
        2,
        3,
        8,
        9,
        10
      ]
    }
  ],
  "bufferViews": [
    {
      "buffer": 0,
      "byteOffset": 0,
      "byteLength": 48,
      "target": 34962,
      "byteStride": 12
    },
    {
      "buffer": 0,
      "byteOffset": 48,
      "byteLength": 48,
      "target": 34962,
      "byteStride": 12
    },
    {
      "buffer": 0,
      "byteOffset": 96,
      "byteLength": 32,
      "target": 34962,
      "byteStride": 8
    },
    {
      "buffer": 0,
      "byteOffset": 128,
      "byteLength": 24,
      "target": 34963
    },
    {
      "buffer": 0,
      "byteOffset": 152,
      "byteLength": 50700,
      "target": 34962,
      "byteStride": 12
    },
    {
      "buffer": 0,
      "byteOffset": 50852,
      "byteLength": 50700,
      "target": 34962,
      "byteStride": 12
    },
    {
      "buffer": 0,
      "byteOffset": 101552,
      "byteLength": 33800,
      "target": 34962,
      "byteStride": 8
    },
    {
      "buffer": 0,
      "byteOffset": 135352,
      "byteLength": 48384,
      "target": 34963
    },
    {
      "buffer": 0,
      "byteOffset": 183736,
      "byteLength": 50700,
      "target": 34962,
      "byteStride": 12
    },
    {
      "buffer": 0,
      "byteOffset": 234436,
      "byteLength": 50700,
      "target": 34962,
      "byteStride": 12
    },
    {
      "buffer": 0,
      "byteOffset": 285136,
      "byteLength": 33800,
      "target": 34962,
      "byteStride": 8
    },
    {
      "buffer": 0,
      "byteOffset": 318936,
      "byteLength": 48384,
      "target": 34963
    },
    {
      "buffer": 0,
      "byteOffset": 367320,
      "byteLength": 50700,
      "target": 34962,
      "byteStride": 12
    },
    {
      "buffer": 0,
      "byteOffset": 418020,
      "byteLength": 33800,
      "target": 34962,
      "byteStride": 8
    },
    {
      "buffer": 0,
      "byteOffset": 451820,
      "byteLength": 50700,
      "target": 34962,
      "byteStride": 12
    },
    {
      "buffer": 0,
      "byteOffset": 502520,
      "byteLength": 49152,
      "target": 34963
    }
  ],
  "buffers": [
    {
      "byteLength": 551672,
      "uri": "data:application/octet-stream;base64,"
    }
  ],
  "accessors": [
    {
      "bufferView": 0,
      "componentType": 5126,
      "count": 4,
      "max": [
        178.5,
        180,
        0
      ],
      "min": [
        -178.5,
        -180,
        0
      ],
      "type": "VEC3"
    },
    {
      "bufferView": 1,
      "componentType": 5126,
      "count": 4,
      "max": [
        0,
        0,
        1
      ],
      "min": [
        0,
        0,
        1
      ],
      "type": "VEC3"
    },
    {
      "bufferView": 2,
      "componentType": 5126,
      "count": 4,
      "max": [
        1,
        1
      ],
      "min": [
        0,
        0
      ],
      "type": "VEC2"
    },
    {
      "bufferView": 3,
      "componentType": 5125,
      "count": 6,
      "max": [
        3
      ],
      "min": [
        0
      ],
      "type": "SCALAR"
    },
    {
      "bufferView": 4,
      "componentType": 5126,
      "count": 4225,
      "max": [
        10.67322063446045,
        45.43098831176758,
        3.872720241546631
      ],
      "min": [
        -10.67322063446045,
        -45.43098831176758,
        -3.872720241546631
      ],
      "type": "VEC3"
    },
    {
      "bufferView": 5,
      "componentType": 5126,
      "count": 4225,
      "max": [
        1,
        1,
        1
      ],
      "min": [
        -1,
        -1,
        -1
      ],
      "type": "VEC3"
    },
    {
      "bufferView": 6,
      "componentType": 5126,
      "count": 4225,
      "max": [
        1.0078125,
        1
      ],
      "min": [
        -0.0078125,
        0
      ],
      "type": "VEC2"
    },
    {
      "bufferView": 7,
      "componentType": 5123,
      "count": 24192,
      "max": [
        4224
      ],
      "min": [
        0
      ],
      "type": "SCALAR"
    },
    {
      "bufferView": 8,
      "componentType": 5126,
      "count": 4225,
      "max": [
        15.549467086791992,
        45.430992126464844,
        4.452968597412109
      ],
      "min": [
        -15.549467086791992,
        -45.430992126464844,
        -4.452968597412109
      ],
      "type": "VEC3"
    },
    {
      "bufferView": 9,
      "componentType": 5126,
      "count": 4225,
      "max": [
        1,
        1,
        1
      ],
      "min": [
        -1,
        -1,
        -1
      ],
      "type": "VEC3"
    },
    {
      "bufferView": 10,
      "componentType": 5126,
      "count": 4225,
      "max": [
        1.0078125,
        1
      ],
      "min": [
        -0.0078125,
        0
      ],
      "type": "VEC2"
    },
    {
      "bufferView": 11,
      "componentType": 5123,
      "count": 24192,
      "max": [
        4224
      ],
      "min": [
        0
      ],
      "type": "SCALAR"
    },
    {
      "bufferView": 12,
      "componentType": 5126,
      "count": 4225,
      "max": [
        40.94044876098633,
        53.899993896484375,
        40.94044876098633
      ],
      "min": [
        -40.94044876098633,
        -69.10000610351562,
        -40.94044876098633
      ],
      "type": "VEC3"
    },
    {
      "bufferView": 13,
      "componentType": 5126,
      "count": 4225,
      "max": [
        1,
        1
      ],
      "min": [
        0,
        0
      ],
      "type": "VEC2"
    },
    {
      "bufferView": 14,
      "componentType": 5126,
      "count": 4225,
      "max": [
        0.9999536871910095,
        0.9981323480606079,
        0.9999536871910095
      ],
      "min": [
        -0.9999536871910095,
        -0.9243127703666687,
        -0.9999536871910095
      ],
      "type": "VEC3"
    },
    {
      "bufferView": 15,
      "componentType": 5123,
      "count": 24576,
      "max": [
        4224
      ],
      "min": [
        0
      ],
      "type": "SCALAR"
    }
  ],
  "meshes": [
    {
      "primitives": [
        {
          "mode": 4,
          "attributes": {
            "POSITION": 0,
            "NORMAL": 1,
            "TEXCOORD_0": 2
          },
          "extras": {
            "shape": {
              "points": [
                -178.5,
                180,
                -178.5,
                180,
                -178.5,
                180,
                0,
                178.5,
                180,
                178.5,
                180,
                178.5,
                180,
                0,
                178.5,
                -180,
                178.5,
                -180,
                178.5,
                -180,
                0,
                -178.5,
                -180,
                -178.5,
                -180,
                -178.5,
                -180,
                0
              ],
              "shapeHoles": [],
              "isClosed": true,
              "roundness": 0
            },
            "parameters": {
              "width": 357,
              "depth": 0,
              "cornerRadius": [
                0,
                0,
                0,
                0
              ],
              "cornerType": 1,
              "extrudeBevelSize": 0,
              "extrudeBevelSegments": 1,
              "height": 360,
              "type": "RectangleGeometry"
            },
            "ui": {
              "enabledIndieCorners": false
            },
            "type": "RectangleGeometry"
          },
          "indices": 3
        }
      ]
    },
    {
      "primitives": [
        {
          "mode": 4,
          "attributes": {
            "POSITION": 4,
            "NORMAL": 5,
            "TEXCOORD_0": 6
          },
          "extras": {
            "parameters": {
              "width": 21.34644214673577,
              "widthSegments": 64,
              "heightSegments": 64,
              "phiStart": 0,
              "phiLength": 6.283185307179586,
              "thetaStart": 0,
              "thetaLength": 180,
              "height": 90.86198076644695,
              "depth": 7.745440575334322,
              "type": "SphereGeometry"
            },
            "type": "SphereGeometry"
          },
          "indices": 7
        }
      ]
    },
    {
      "primitives": [
        {
          "mode": 4,
          "attributes": {
            "POSITION": 8,
            "NORMAL": 9,
            "TEXCOORD_0": 10
          },
          "extras": {
            "parameters": {
              "width": 31.098933527324654,
              "widthSegments": 64,
              "heightSegments": 64,
              "phiStart": 0,
              "phiLength": 6.283185307179586,
              "thetaStart": 0,
              "thetaLength": 180,
              "height": 90.86198076644695,
              "depth": 8.905937090871635,
              "type": "SphereGeometry"
            },
            "type": "SphereGeometry"
          },
          "indices": 11
        }
      ]
    },
    {
      "primitives": [
        {
          "mode": 4,
          "attributes": {
            "POSITION": 12,
            "TEXCOORD_0": 13,
            "NORMAL": 14
          },
          "extras": {
            "parameters": {
              "width": 131.5251247559971,
              "segments": 64,
              "verticalSegments": 64,
              "points": [
                [
                  0,
                  -53.899993896484375
                ],
                [
                  59,
                  -51.899993896484375
                ],
                [
                  50,
                  50
                ],
                [
                  0,
                  69.10000610351562
                ]
              ],
              "height": 241.83744167971957,
              "depth": 110.9038892426138,
              "type": "LatheGeometry"
            },
            "type": "LatheGeometry"
          },
          "indices": 15
        }
      ]
    }
  ],
  "extensions": {
    "KHR_lights_punctual": {
      "lights": [
        {
          "name": "Directional Light",
          "color": [
            1,
            1,
            1
          ],
          "intensity": 1,
          "type": "directional"
        }
      ]
    }
  },
  "cameras": [
    {
      "type": "orthographic",
      "orthographic": {
        "xmag": 4.909537278828616,
        "ymag": 2.294371824907123,
        "zfar": 100000,
        "znear": 0
      }
    }
  ],
  "extensionsUsed": [
    "KHR_lights_punctual"
  ]
}